<svg xmlns="http://www.w3.org/2000/svg" xmlns:xlink="http://www.w3.org/1999/xlink" viewBox="0 0 300 111.63"><defs><style>.cls-1,.cls-10,.cls-11,.cls-17,.cls-3,.cls-6,.cls-7,.cls-9{fill:none;}.cls-2{clip-path:url(#clip-path);}.cls-3{stroke:#e9edf2;stroke-width:7.08px;}.cls-10,.cls-11,.cls-14,.cls-17,.cls-3,.cls-6,.cls-7,.cls-9{stroke-linecap:round;}.cls-10,.cls-11,.cls-14,.cls-3,.cls-6,.cls-7,.cls-9{stroke-linejoin:round;}.cls-4{fill:#e9edf2;}.cls-14,.cls-5{fill:#2f93e0;}.cls-14,.cls-6,.cls-9{stroke:#2f93e0;}.cls-6{stroke-width:4.81px;}.cls-7{stroke:#1b2e3f;}.cls-10,.cls-7{stroke-width:0.4px;}.cls-8{fill:#0f2535;}.cls-9{stroke-width:2.53px;}.cls-10,.cls-11,.cls-13{stroke:#0f2535;}.cls-11{stroke-dasharray:3.42;}.cls-12{fill:#1b2e3f;}.cls-13,.cls-15{fill:#fff;}.cls-13,.cls-17{stroke-miterlimit:10;}.cls-13{stroke-width:0.6px;}.cls-14{stroke-width:0.61px;}.cls-16{clip-path:url(#clip-path-2);}.cls-17{stroke:#fff;stroke-width:0.34px;}
	.dash {
	  -webkit-animation: dash 60s linear infinite;
	  stroke-dasharray: 5;
	}	

	@keyframes dash {
	  to {
		stroke-dashoffset: 1000;
	  }
	}</style><clipPath id="clip-path"><rect class="cls-1" x="20.32" y="27.28" width="37.55" height="53.2"/></clipPath><clipPath id="clip-path-2"><path class="cls-1" d="M118.18,76.9l35.44,10.79,8.06-12.46.7-2.46s-11.31,4.65-22.5,5.1c-10.83.43-20.71-1.94-22.64-3.71"/></clipPath></defs><title>loading-image</title><g id="loading"><g id="background"><g class="cls-2"><line class="cls-3" x1="39.75" y1="79.44" x2="39.75" y2="34.59"/><polyline class="cls-3" points="27.72 45.89 27.72 54.14 37.1 57.2"/><polyline class="cls-3" points="53.61 51 53.61 59.35 42.98 62.57"/></g><path class="cls-4" d="M102.31,85H195.2c1.06,0,23.26-.67,27.44-.67,9.76,0,5.47-5.79,1.39-5.79-7,0-12.54-1.21-13.93-1.21a25.83,25.83,0,0,1-4.15-.57c-.17,0-.35,0-.53-.08a34.4,34.4,0,0,1-9.6-2.92l-7.53-3.57a19.46,19.46,0,0,0-16.15-.44c-2.08.83-4.15,1.68-6.23,2.52a15.14,15.14,0,0,1-5.35,1.15,15.56,15.56,0,0,1-10.47-3.53q-6.9-5.56-13.8-11.15a11,11,0,0,0-6.91-2.54,18.46,18.46,0,0,1-14.16-6.62c-2.64-3.05-5.25-6.12-7.87-9.19A34.5,34.5,0,0,1,100.9,29a41.85,41.85,0,0,1-1.8-9.2A7.12,7.12,0,0,0,93,13.45a20.42,20.42,0,0,0-5.63,0,6.49,6.49,0,0,0-5.79,6.64c0,.9,0,1.79,0,2.69a8.3,8.3,0,0,1-8.15,8.57c-2.42,0-3.83,1.58-3.93,4-.08,1.84-.15,3.68-.23,5.51a33.76,33.76,0,0,1-8.92,21.79c-1.55,1.74-3.13,3.45-4.71,5.16S52.44,71.35,50.7,73a18.52,18.52,0,0,1-7,4.16,30.58,30.58,0,0,1-7.64,1.42c-7.38.43-14.76.77-22.14,1.15a8.38,8.38,0,0,0-1.73.24A5.89,5.89,0,0,0,7.91,84c-.26.78-.1,1,.7,1,.45,0,.9,0,1.34,0Z"/><path class="cls-4" d="M16,80a3.08,3.08,0,0,0,.43,0c.26,0,.65.16.75-.18s-.32-.33-.51-.46a14.13,14.13,0,0,1-2.41-1.94,4.22,4.22,0,0,1-.76-1,1.4,1.4,0,0,1,.1-1.61,1.44,1.44,0,0,1,1.46-.43c.33.06.69.41,1,.19s0-.61,0-.92a1.41,1.41,0,0,1,.69-1.36,1.43,1.43,0,0,1,1.6.21c.53.38.54.37.91-.22a1.3,1.3,0,0,1,2.39,0c.26.38.38.65.85.22a1.28,1.28,0,0,1,1.59-.16,1.51,1.51,0,0,1,.65,1.48,4.81,4.81,0,0,1-.07.53c0,.28.07.39.37.3a4.16,4.16,0,0,1,1-.27A1.29,1.29,0,0,1,27.46,76a3.49,3.49,0,0,1-.95,1.41,14.42,14.42,0,0,1-2.69,2.1c-.11.07-.27.14-.18.31s.17.1.27.1c.28,0,.57,0,.85,0H57.9c.36,0,.71,0,1.07,0a.65.65,0,0,1,0,1.29c-.31,0-.64,0-1,0H31.17"/></g><g id="cattle-right"><g id="cactus"><path class="cls-5" d="M240,89.74V59.3a2.41,2.41,0,1,1,4.81,0V89.74S239.93,89.78,240,89.74Z"/><polyline class="cls-6" points="234.2 66.99 234.2 72.55 240.53 74.64"/><polyline class="cls-6" points="251.74 70.43 251.74 76.12 244.53 78.28"/></g><line id="ground" class="cls-7" x1="235.76" y1="89.74" x2="248.86" y2="89.74"/><path id="cattle" class="cls-8" d="M264.46,86h-7.21a.19.19,0,0,0-.2.2v1.92a.19.19,0,0,0,.2.2h7.21a.19.19,0,0,0,.2-.2V86.16A.19.19,0,0,0,264.46,86Zm-6.65,1.68v-1h1v1Zm4.13-.32h0a.2.2,0,1,1,.2-.2A.21.21,0,0,1,261.94,87.32Zm.76,0a.2.2,0,1,1,.2-.2A.19.19,0,0,1,262.7,87.32Zm.8,0h0a.2.2,0,1,1,.2-.2A.19.19,0,0,1,263.5,87.32Zm1,1.48h-7.21a.19.19,0,0,0-.2.2v1.92a.19.19,0,0,0,.2.2h7.21a.19.19,0,0,0,.2-.2V89A.19.19,0,0,0,264.46,88.8Zm-6.65,1.68v-1h1v1Zm4.09-.32a.2.2,0,1,1,.2-.2A.19.19,0,0,1,261.9,90.16Zm.8,0h0a.21.21,0,0,1-.2-.2.22.22,0,1,1,.44,0h0Q262.88,90.16,262.7,90.16Zm.8,0h0a.21.21,0,0,1-.2-.2.22.22,0,1,1,.44,0h0Q263.68,90.16,263.5,90.16Zm1,1.48h-7.21a.19.19,0,0,0-.2.2v1.93a.19.19,0,0,0,.2.2h7.21a.19.19,0,0,0,.2-.2V91.84A.21.21,0,0,0,264.46,91.64Zm-6.65,1.69v-1h1v1Zm4.13-.28h0a.19.19,0,0,1-.2-.21.2.2,0,1,1,.4,0A.26.26,0,0,1,261.94,93.05Zm.8,0h0a.19.19,0,0,1-.2-.21.2.2,0,1,1,.4,0A.22.22,0,0,1,262.74,93.05Zm.72,0a.19.19,0,0,1-.2-.21.2.2,0,0,1,.4,0A.19.19,0,0,1,263.46,93.05Zm3.33-9A2.24,2.24,0,0,1,265,86.16v1.16A2.31,2.31,0,0,0,267,85,2.48,2.48,0,0,0,266.79,84Zm-11.86,0a2.23,2.23,0,0,0,1.8,2.13v1.16a2.3,2.3,0,0,1-2-2.37A3.7,3.7,0,0,1,254.93,84Z"/><path id="cattle-2" data-name="cattle" class="cls-8" d="M211.05,81h-5.16a.17.17,0,0,0-.16.16v1.37a.17.17,0,0,0,.16.16h5.16a.17.17,0,0,0,.16-.16V81.2A.17.17,0,0,0,211.05,81Zm-4.76,1.21v-.72H207v.72Zm3-.2h0a.16.16,0,1,1,.16-.16C209.37,82,209.33,82.05,209.25,82.05Zm.52,0a.16.16,0,1,1,.16-.16A.15.15,0,0,1,209.77,82.05Zm.6,0h0a.16.16,0,1,1,.16-.16A.15.15,0,0,1,210.37,82.05Zm.68,1h-5.16a.17.17,0,0,0-.16.16v1.36a.17.17,0,0,0,.16.16h5.16a.17.17,0,0,0,.16-.16V83.25A.17.17,0,0,0,211.05,83.09Zm-4.76,1.2v-.72H207v.72Zm2.92-.2a.16.16,0,1,1,.16-.16A.17.17,0,0,1,209.21,84.09Zm.56,0h0c-.08,0-.16,0-.16-.12s0-.16.12-.16.16,0,.16.12h0C209.93,84,209.89,84.09,209.77,84.09Zm.6,0h0c-.08,0-.16,0-.16-.12s0-.16.12-.16.16,0,.16.12h0C210.53,84,210.45,84.09,210.37,84.09Zm.68,1h-5.16a.17.17,0,0,0-.16.16v1.36a.17.17,0,0,0,.16.16h5.16a.17.17,0,0,0,.16-.16V85.29A.17.17,0,0,0,211.05,85.13Zm-4.76,1.24v-.72H207v.72Zm3-.24h0a.16.16,0,1,1,.16-.16C209.37,86.09,209.33,86.13,209.25,86.13Zm.56,0h0A.16.16,0,1,1,210,86,.15.15,0,0,1,209.81,86.13Zm.56,0a.16.16,0,1,1,.16-.16C210.49,86.09,210.45,86.13,210.37,86.13Zm2.36-6.45a1.62,1.62,0,0,1-1.28,1.52v.85a1.63,1.63,0,0,0,1.4-1.69A1.87,1.87,0,0,0,212.73,79.68Zm-8.49,0a1.62,1.62,0,0,0,1.28,1.52V82a1.63,1.63,0,0,1-1.4-1.69A2,2,0,0,1,204.24,79.64Z"/><path id="cattle-3" data-name="cattle" class="cls-5" d="M231.92,87.61H219.3a.36.36,0,0,0-.36.36V91.3a.36.36,0,0,0,.36.36h12.62a.36.36,0,0,0,.36-.36V88A.36.36,0,0,0,231.92,87.61Zm-11.58,2.93V88.77h1.77l0,1.77Zm7.13-.52h0a.36.36,0,1,1,.36-.36A.36.36,0,0,1,227.47,90Zm1.36,0a.36.36,0,1,1,.37-.36A.36.36,0,0,1,228.83,90Zm1.41,0h0a.36.36,0,1,1,.36-.36A.36.36,0,0,1,230.24,90Zm1.68,2.56H219.3a.36.36,0,0,0-.36.36v3.32a.36.36,0,0,0,.36.36h12.62a.36.36,0,0,0,.36-.36V92.94A.36.36,0,0,0,231.92,92.58ZM220.34,95.5V93.74h1.77l0,1.76Zm7.09-.52a.36.36,0,1,1,.36-.36C227.83,94.82,227.63,95,227.43,95Zm1.4,0h0a.32.32,0,0,1-.36-.32.39.39,0,0,1,.32-.4.4.4,0,0,1,.41.32h0A.37.37,0,0,1,228.83,95Zm1.41,0h0a.32.32,0,0,1-.36-.32.36.36,0,1,1,.72-.08h0A.37.37,0,0,1,230.24,95Zm1.68,2.57H219.3a.36.36,0,0,0-.36.36v3.32a.36.36,0,0,0,.36.36h12.62a.36.36,0,0,0,.36-.36V97.91A.39.39,0,0,0,231.92,97.55Zm-11.58,2.92V98.71h1.77l0,1.76Zm7.13-.48h0a.36.36,0,1,1,.36-.36A.36.36,0,0,1,227.47,100Zm1.4,0h0a.36.36,0,1,1,.37-.36A.36.36,0,0,1,228.87,100Zm1.33,0a.36.36,0,1,1,.36-.36A.36.36,0,0,1,230.2,100ZM236,84.29A4,4,0,0,1,232.88,88v2a4,4,0,0,0,3.4-4.13A5.16,5.16,0,0,0,236,84.29Zm-20.7-.08a4,4,0,0,0,3.12,3.72v2a4,4,0,0,1-3.4-4.13A3.66,3.66,0,0,1,215.3,84.21Z"/></g><g id="cattle-left"><g id="cactus-2" data-name="cactus"><path class="cls-5" d="M65.87,88.84V73.12a1.3,1.3,0,0,1,1.29-1.28,1.26,1.26,0,0,1,1.28,1.28V88.84Z"/><polyline class="cls-9" points="62.87 77.17 62.87 80.09 66.19 81.21"/><polyline class="cls-9" points="72.08 78.97 72.08 81.97 68.32 83.14"/></g><line id="ground-2" data-name="ground" class="cls-10" x1="63.11" y1="88.84" x2="71.04" y2="88.84"/><path id="cattle-4" data-name="cattle" class="cls-8" d="M56,88.22h-11a.32.32,0,0,0-.32.32v2.93a.32.32,0,0,0,.32.32H56a.32.32,0,0,0,.32-.32V88.54C56.34,88.38,56.18,88.22,56,88.22ZM45.85,90.78V89.26h1.52l0,1.52Zm6.29-.44h0a.32.32,0,0,1-.32-.32.32.32,0,1,1,.32.32Zm1.16,0a.32.32,0,1,1,.32-.32A.34.34,0,0,1,53.3,90.34Zm1.24,0h0a.32.32,0,0,1-.32-.32.32.32,0,1,1,.32.32ZM56,92.59h-11a.32.32,0,0,0-.32.32v2.92a.32.32,0,0,0,.32.32H56a.32.32,0,0,0,.32-.32V92.91C56.34,92.71,56.18,92.59,56,92.59ZM45.85,95.15V93.63h1.52l0,1.52Zm6.25-.48a.32.32,0,1,1,.32-.32A.32.32,0,0,1,52.1,94.67Zm1.2,0h0a.31.31,0,0,1-.32-.28.32.32,0,1,1,.64-.08h0A.33.33,0,0,1,53.3,94.67Zm1.24,0h0a.31.31,0,0,1-.32-.28.32.32,0,1,1,.64-.08h0A.33.33,0,0,1,54.54,94.67ZM56,97h-11a.32.32,0,0,0-.32.32v2.93a.32.32,0,0,0,.32.32H56a.32.32,0,0,0,.32-.32V97.27C56.34,97.07,56.18,97,56,97ZM45.85,99.52V98h1.52l0,1.53H45.85ZM52.14,99h0a.32.32,0,0,1-.32-.33.32.32,0,1,1,.64,0A.32.32,0,0,1,52.14,99Zm1.2,0h0a.33.33,0,1,1,.32-.33C53.66,98.92,53.54,99.08,53.34,99Zm1.16,0a.33.33,0,1,1,.32-.33A.35.35,0,0,1,54.5,99ZM59.59,85.3a3.51,3.51,0,0,1-2.73,3.24V90.3a3.49,3.49,0,0,0,3-3.6A5.44,5.44,0,0,0,59.59,85.3Zm-18.15-.08a3.49,3.49,0,0,0,2.73,3.24v1.76a3.49,3.49,0,0,1-3-3.6A6.2,6.2,0,0,1,41.44,85.22Z"/><path id="cattle-5" data-name="cattle" class="cls-5" d="M81.29,86.7H74.45a.19.19,0,0,0-.2.2v1.8a.19.19,0,0,0,.2.2h6.84a.19.19,0,0,0,.2-.2V86.9A.21.21,0,0,0,81.29,86.7ZM75,88.26v-1h1v1ZM78.89,88h0a.2.2,0,1,1,.2-.2C79.09,87.9,79,88,78.89,88Zm.72,0a.2.2,0,1,1,.2-.2A.19.19,0,0,1,79.61,88Zm.76,0h0a.2.2,0,1,1,.2-.2C80.57,87.9,80.49,88,80.37,88Zm.92,1.4H74.45a.19.19,0,0,0-.2.2v1.81a.19.19,0,0,0,.2.2h6.84a.19.19,0,0,0,.2-.2V89.58A.21.21,0,0,0,81.29,89.38ZM75,91V90h1v1Zm3.84-.29a.2.2,0,1,1,.2-.2A.21.21,0,0,1,78.85,90.7Zm.76,0h0c-.08,0-.2-.08-.2-.16a.2.2,0,0,1,.4,0h0A.22.22,0,0,1,79.61,90.7Zm.76,0h0c-.08,0-.2-.08-.2-.16a.2.2,0,1,1,.4,0h0A.22.22,0,0,1,80.37,90.7Zm.92,1.41H74.45a.19.19,0,0,0-.2.2v1.8a.19.19,0,0,0,.2.2h6.84a.19.19,0,0,0,.2-.2v-1.8A.21.21,0,0,0,81.29,92.11ZM75,93.67v-.92h1v1H75Zm3.88-.28h0a.2.2,0,1,1,.2-.2A.21.21,0,0,1,78.89,93.39Zm.76,0h0a.2.2,0,1,1,.2-.2A.21.21,0,0,1,79.65,93.39Zm.68,0a.2.2,0,1,1,.2-.2A.19.19,0,0,1,80.33,93.39ZM83.5,84.9a2.13,2.13,0,0,1-1.69,2V88a2.11,2.11,0,0,0,1.85-2.24A2.09,2.09,0,0,0,83.5,84.9Zm-11.26-.08a2.13,2.13,0,0,0,1.68,2v1.12a2.11,2.11,0,0,1-1.84-2.24A3.4,3.4,0,0,1,72.24,84.82Z"/></g>
	
	<g id="lasso"><path class="cls-11 dash" d="M174,94.39c20.64.81,14.31-14.1.25-27.44"/><path class="cls-11 dash" d="M118.47,43.53c-45.52-9.27-31.71-21-31.71-21"/><ellipse class="cls-11 dash" cx="139.88" cy="18.71" rx="49.4" ry="12.09"/><circle id="circle" class="cls-12" cx="88.51" cy="20.93" r="1.24"/>
	</g>
	
	<g id="cowboy"><g id="Hat-brim"><path class="cls-13" d="M115,65.32a24.65,24.65,0,0,1,1.51-10.07,23.44,23.44,0,0,1,1.79-3.78c-.78-.35-1.57-.71-2.39-1.1a56.13,56.13,0,0,0-19.81-5.2c-14.36-.46-12.68,6.52-12.68,6.52,1,10.89,20.64,15.87,32.39,17.89A17.76,17.76,0,0,1,115,65.32Z"/><path class="cls-13" d="M182.88,45.17a56.13,56.13,0,0,0-19.81,5.2c-.55.27-1.09.51-1.63.76a20.71,20.71,0,0,1,1.62,18.35.5.5,0,0,0-.05.13c11.73-2,31.55-7,32.55-17.92C195.56,51.69,197.24,44.71,182.88,45.17Z"/></g><path id="octopus" class="cls-14" d="M109.19,92.41c5.28-3.4,11.48-9.23,9.13-16.1-1.28-3.74-3.06-7-3.3-11a24.65,24.65,0,0,1,1.51-10.07c4.73-12.71,18.8-18.73,31.52-14.91,11.79,3.54,19.89,17.22,15,29.14-2.82,6.88-4.08,12.19,2.2,17.54,1.71,1.45,5.84,3.63,5.82,6.2,0,3.37-6.63-.72-7.36-1.3.84,1.47,9.17,10.15,3.87,10.77-4.89.57-9.2-6.25-12.13-9.17-4.93-4.92-4.07,6-4.1,8.2,0,3.55-2.54,10.74-7,6.06-3.71-3.87-2.31-10-4.89-14.33-2.83-4.7-7.54,4.71-8.71,6.43-1.32,1.92-7.89,11.23-10.51,6.27-2.12-4,1.27-10.34,2.94-14-.6,1.32-4.92,3.28-6.18,3.92A16.8,16.8,0,0,1,108,98.15c-6.63-.48-1.55-4,1.15-5.74Z"/><g id="bandana"><path class="cls-15" d="M166.63,72.29a7.6,7.6,0,0,0-3.57,2.08,7.76,7.76,0,0,0,4.13-.27A7.6,7.6,0,0,0,170.76,72,7.76,7.76,0,0,0,166.63,72.29Z"/><path class="cls-15" d="M118.18,76.9l35.44,10.79,8.06-12.46.7-2.46s-11.31,4.65-22.5,5.1c-10.83.43-20.71-1.92-22.64-3.68"/><g class="cls-16"><circle class="cls-8" cx="139.24" cy="80.11" r="0.48"/><circle class="cls-8" cx="136.9" cy="78.12" r="0.48"/><circle class="cls-8" cx="133.36" cy="78.19" r="0.48"/><circle class="cls-8" cx="140.62" cy="77.99" r="0.48"/><circle class="cls-8" cx="142.81" cy="79.95" r="0.48"/><circle class="cls-8" cx="146.38" cy="79.79" r="0.48"/><circle class="cls-8" cx="149.94" cy="79.64" r="0.48"/><circle class="cls-8" cx="128.54" cy="80.59" r="0.48"/><circle class="cls-8" cx="132.11" cy="80.43" r="0.48"/><circle class="cls-8" cx="128.93" cy="80.16" r="0.48"/><circle class="cls-8" cx="135.67" cy="80.27" r="0.48"/><circle class="cls-8" cx="153.51" cy="79.48" r="0.48"/><circle class="cls-8" cx="157.08" cy="79.32" r="0.48"/><circle class="cls-8" cx="144.48" cy="77.4" r="0.48"/><circle class="cls-8" cx="148.03" cy="77.24" r="0.48"/><circle class="cls-8" cx="151.67" cy="77.07" r="0.48"/><circle class="cls-8" cx="130.21" cy="78.03" r="0.48"/><circle class="cls-8" cx="125.25" cy="78.25" r="0.48"/><circle class="cls-8" cx="121.01" cy="76.7" r="0.48"/><circle class="cls-8" cx="155.18" cy="76.92" r="0.48"/><circle class="cls-8" cx="158.75" cy="76.76" r="0.48"/><circle class="cls-8" cx="156.81" cy="74.45" r="0.48"/><circle class="cls-8" cx="160.38" cy="74.29" r="0.48"/><circle class="cls-8" cx="139.44" cy="84.48" r="0.48"/><circle class="cls-8" cx="143" cy="84.32" r="0.48"/><circle class="cls-8" cx="146.57" cy="84.16" r="0.48"/><circle class="cls-8" cx="150.14" cy="84" r="0.48"/><circle class="cls-8" cx="128.73" cy="84.96" r="0.48"/><circle class="cls-8" cx="132.3" cy="84.8" r="0.48"/><circle class="cls-8" cx="135.87" cy="84.64" r="0.48"/><circle class="cls-8" cx="153.7" cy="83.84" r="0.48"/><circle class="cls-8" cx="157.27" cy="83.69" r="0.48"/><circle class="cls-8" cx="141.09" cy="82.13" r="0.48"/><circle class="cls-8" cx="144.65" cy="81.98" r="0.48"/><circle class="cls-8" cx="148.24" cy="81.82" r="0.48"/><circle class="cls-8" cx="151.87" cy="81.65" r="0.48"/><circle class="cls-8" cx="152.07" cy="86.12" r="0.48"/><circle class="cls-8" cx="148.8" cy="86.17" r="0.48"/><circle class="cls-8" cx="137.52" cy="82.29" r="0.48"/><circle class="cls-8" cx="155.35" cy="81.5" r="0.48"/></g><circle class="cls-15" cx="162.67" cy="74.19" r="1.69"/><path class="cls-15" d="M166.65,73.8a3.62,3.62,0,0,0-2.69.51,4,4,0,0,0,5.07.85A3.58,3.58,0,0,0,166.65,73.8Z"/></g><g id="hat-top"><path class="cls-8" d="M118.72,43s.79-16.27,1.62-20.78c0,0,2.48-12,8.6-12.75,0,0,1.34-.61,3.59,1.2,0,0,3.86,3.18,7.71,3.78,0,0,6,.75,8.44-1.13,0,0,2.25-2.65,4.26-.15,0,0,7.71,9.81,7.95,31.41L161,48.9s-34.8,2.7-35.53,2.49C117.58,49.11,118.1,51.18,118.72,43Z"/><path class="cls-15" d="M139.53,56.37h0Z"/><path class="cls-15" d="M172.56,46.86l.12.08v-.11Z"/><path class="cls-8" d="M129.38,47.77s-10.32-.06-32.24-2.55c2.91.77,15.49,3.51,18.79,5.1,10,4.8,17.7,6,23.57,6,5.87-.08,13.59-1.25,23.57-6,3.3-1.59,16.92-5,19.15-5.22A165,165,0,0,1,143.17,47Z"/><path class="cls-15" d="M161,47.31a81.88,81.88,0,0,1-42.58,0l.19-3.12S145.83,48,160.88,44Z"/></g><circle class="cls-15" cx="139.99" cy="67.66" r="1.07"/><path class="cls-17" d="M139.41,69.49A1.49,1.49,0,0,1,137.92,68"/><circle class="cls-15" cx="143" cy="62.41" r="1.73"/><circle class="cls-15" cx="136.97" cy="62.41" r="1.73"/><path class="cls-8" d="M149.23,66.39h-.41v3.33a1.16,1.16,0,0,0-.8,0c-.52.19-.82.65-.69,1a.89.89,0,0,0,1.18.34,1,1,0,0,0,.72-.84V67.53c.71.11.76,1,.68,1.26,0,.1,0,.17.13,0C150.81,67.6,149.23,67.07,149.23,66.39Z"/><path class="cls-8" d="M144.23,65.28v3a1,1,0,0,0-.54,0,.69.69,0,0,0-.47.86c.11.32.45.45.87.29a.82.82,0,0,0,.6-.71v-2.5l1.8-.41v1.91a1,1,0,0,0-.54,0,.69.69,0,0,0-.47.86c.12.32.45.45.88.29a.81.81,0,0,0,.59-.71V64.69Z"/></g></g></svg>