<!--Scalable Vector Graphic-->
<svg xmlns="http://www.w3.org/2000/svg" class="waiting-for-octopus" width="500px" height="200px" viewBox="0 0 300 600" preserveAspectRatio="xMidYMid meet">
<defs>
<style>
.waiting-for-octopus {
    margin: 0 auto;
    width: 22rem;
    position: relative;
    display: block;
    vertical-align: middle;
	animation-name:fadeIn;	
	animation-duration: 0.5s;
}
@keyframes fadeIn {
	0% { opacity:0; }
	100% { opacity:1; }
	}
@keyframes fireworkone {
	0%   { opacity: 0;}
	25%  { opacity: .15;}
	50%  { opacity: .3;}
 	75%  { opacity: .15;}
	100% { opacity: 0;} 
}
@keyframes fireworktwo {
  	0%   { opacity: 0;}
  	25%  { opacity: .45;}
  	50%  { opacity: .8;}
  	75%  { opacity: .45;}
  	100% { opacity: 0;} 
}
@keyframes fireworkthree {
  	0%   { opacity: 0;}
  	25%  { opacity: .55;}
  	50%  { opacity: 1;}
  	75%  { opacity: .55;}
  	100% { opacity: 0;} 
}
.firework-icon .cls-1, .firework-icon .cls-2, .firework-icon .cls-3 {
  	opacity: 0;
  	animation-duration: 1s;
  	animation-iteration-count: infinite;
}
.firework-icon .cls-3 {
  	animation-name: fireworkthree;
  	animation-delay: .11s; 
}
.firework-icon .cls-2 {
  	animation-name: fireworktwo;
	animation-delay: .41s; 
}

.firework-icon .cls-1 {
	animation-name: fireworkone;
	animation-delay: .71s;
}
#octopus {
	fill:#2F93E0;
	transform:scale(1);
}		
.firework-cyan-left	{
	animation-duration: 3s;
	animation-iteration-count: infinite;
	animation-name: transform-cyan-left;
	animation-delay: 0s;
	stroke: #2F93E0;
	stroke-width: 4px;
	animation-timing-function: ease-in-out;
	opacity:0;
}		
@keyframes transform-cyan-left {
	0%   { transform: scale(0.5); 
		 transform-origin: center center 0px;
		 opacity:0;
		}
	100% { transform: scale(1);
		 transform-origin: center 20% 0px;
		 opacity:1;
		}
}			

.firework-cyan-right	{
        animation-duration: 2s;
        animation-iteration-count: infinite;
		animation-name: transform-cyan-right;
		animation-delay: 1s;
		stroke: #2F93E0;
		stroke-width: 2px;
		opacity:0;
		animation-timing-function: ease-in-out;

	}		

@keyframes transform-cyan-right {
   0%   {transform: scale(0.1); 
		 transform-origin: center 78% 0px;
		 opacity:0;
			}
  100% { transform: scale(1);
		 transform-origin: center center 0px;
		 opacity:1;
			}
}
			
.firework-navy-right	{
	animation-duration: 3s;
	animation-iteration-count: infinite;
	animation-name: transform-navy-right;
	animation-delay: 1s;
	stroke: #0F2535;
	stroke-width: 4px;
	opacity:0;
	animation-timing-function: ease-in-out;

}		

@keyframes transform-navy-right {
	0%   {	transform: scale(0.4); 
		 	transform-origin: center center 0px;
		 	opacity:0;
			}
	100% {	transform: scale(1);
		 	transform-origin: center center 0px;
		 	opacity:1;
			}  
}
.firework-navy-left	{
	animation-duration: 3s;
	animation-iteration-count: infinite;
	animation-name: transform-navy-left;
	animation-delay: 1.5s;
	stroke: #0F2535;
	stroke-width: 2px;
	opacity:0;
	animation-timing-function: ease-in-out;
}		
@keyframes transform-navy-left {
	0%   { 	transform: scale(0.3); 
		 	transform-origin: center center 0px;
		 	opacity:0;
			}
	100% { 	transform: scale(1);
		 	transform-origin: center 20% 0px;
		 	opacity:1;
			} 
}
		</style>
	</defs>

<!--Composition-->
	<svg id="octopus" x="40" y="300">
		<title>Octopus-symbol</title>
	<path class="octopus" fill="#2f93e0" d="M20.88,150.38C35.42,141,52.5,125,46,106.06c-3.53-10.3-8.43-19.13-9.08-30.27a68.18,68.18,0,0,1,4.14-27.72c13-35,51.78-51.55,86.79-41,32.43,9.74,54.74,47.4,41.3,80.21-7.76,18.94-11.23,33.56,6.07,48.29,4.69,4,16.07,10,16,17.06-.06,9.28-18.25-2-20.29-3.59,2.31,4,25.26,28,10.65,29.66-13.44,1.57-25.31-17.21-33.39-25.26C134.68,139.88,137,169.82,137,176c-.1,9.77-7,29.56-19.38,16.67-10.23-10.64-6.36-27.62-13.47-39.44-7.79-12.95-20.75,12.95-24,17.69-3.62,5.29-21.72,30.93-28.92,17.27-5.84-11.08,3.5-28.46,8.09-38.49-1.67,3.64-13.54,9-17,10.78-7.84,4-15.79,6.3-24.6,5.67-18.24-1.31-4.25-11,3.18-15.78Z"/>
	</svg>
	
<!--FIREWORK LEFT-->
	<svg class="firework-icon img-firework firework-cyan-left" id="firework" x="-240" y="-50" viewBox="0 0 300 300">
		<title>Firework-symbol</title>
		<path style="fill: inherit;" class="cls-3" d="M80.52,106.92a0.65,0.65,0,0,1-.65-0.65v-10a0.65,0.65,0,0,1,1.3,0v10A0.65,0.65,0,0,1,80.52,106.92Z"></path>
		<path style="fill: inherit;" class="cls-3" d="M97.72,100.91a0.65,0.65,0,0,1-.52-0.26l-6-8a0.65,0.65,0,0,1,1-.78l6,8A0.65,0.65,0,0,1,97.72,100.91Z"></path>
		<path style="fill: inherit;" class="cls-3" d="M108.32,85.95a0.61,0.61,0,0,1-.19,0l-9.55-3A0.65,0.65,0,1,1,99,81.69l9.55,3A0.65,0.65,0,0,1,108.32,85.95Z"></path>
		<path style="fill:inherit;" class="cls-3" d="M98.77,71a0.65,0.65,0,0,1-.2-1.27l9.55-3a0.65,0.65,0,1,1,.39,1.24L99,71A0.66,0.66,0,0,1,98.77,71Z"></path>
		<path style="fill:inherit;" class="cls-3" d="M91.7,61a0.65,0.65,0,0,1-.52-1l6-8a0.65,0.65,0,0,1,1,.78l-6,8A0.65,0.65,0,0,1,91.7,61Z"></path>
		<path style="fill:inherit;" class="cls-3" d="M80.52,57a0.65,0.65,0,0,1-.65-0.65v-10a0.65,0.65,0,0,1,1.3,0v10A0.65,0.65,0,0,1,80.52,57Z"></path>
		<path style="fill:inherit;" class="cls-3" d="M67.64,61a0.65,0.65,0,0,1-.52-0.26l-6-8a0.65,0.65,0,0,1,1-.78l6,8A0.65,0.65,0,0,1,67.64,61Z"></path>
		<path style="fill:inherit;" class="cls-3" d="M60.57,71a0.66,0.66,0,0,1-.2,0l-9.55-3a0.65,0.65,0,1,1,.39-1.24l9.55,3A0.65,0.65,0,0,1,60.57,71Z"></path>
		<path style="fill:inherit;" class="cls-3" d="M51,85.95a0.65,0.65,0,0,1-.19-1.27l9.55-3a0.65,0.65,0,1,1,.39,1.24l-9.55,3A0.61,0.61,0,0,1,51,85.95Z"></path>
		<path style="fill:inherit;" class="cls-3" d="M61.62,100.91a0.65,0.65,0,0,1-.52-1l6-8a0.65,0.65,0,0,1,1,.78l-6,8A0.65,0.65,0,0,1,61.62,100.91Z"></path>

		<path class="cls-2" d="M80.52,126.88a0.65,0.65,0,0,1-.65-0.65v-10a0.65,0.65,0,0,1,1.3,0v10A0.65,0.65,0,0,1,80.52,126.88Z"></path>
		<path class="cls-2" d="M109.74,116.86a0.65,0.65,0,0,1-.52-0.26l-6-8a0.65,0.65,0,0,1,1-.78l6,8A0.65,0.65,0,0,1,109.74,116.86Z"></path>
		<path class="cls-2" d="M127.42,91.92a0.61,0.61,0,0,1-.19,0l-9.55-3a0.65,0.65,0,1,1,.39-1.24l9.55,3A0.65,0.65,0,0,1,127.42,91.92Z"></path>
		<path class="cls-2" d="M117.86,65a0.65,0.65,0,0,1-.2-1.27l9.55-3a0.65,0.65,0,1,1,.39,1.24l-9.55,3A0.66,0.66,0,0,1,117.86,65Z"></path>
		<path class="cls-2" d="M103.73,45.08a0.65,0.65,0,0,1-.52-1l6-8a0.65,0.65,0,0,1,1,.78l-6,8A0.65,0.65,0,0,1,103.73,45.08Z"></path>
		<path class="cls-2" d="M80.52,37.07a0.65,0.65,0,0,1-.65-0.65v-10a0.65,0.65,0,0,1,1.3,0v10A0.65,0.65,0,0,1,80.52,37.07Z"></path>
		<path class="cls-2" d="M55.61,45.08a0.65,0.65,0,0,1-.52-0.26l-6-8a0.65,0.65,0,0,1,1-.78l6,8A0.65,0.65,0,0,1,55.61,45.08Z"></path>
		<path class="cls-2" d="M41.47,65a0.62,0.62,0,0,1-.2,0l-9.55-3a0.65,0.65,0,1,1,.39-1.24l9.55,3A0.65,0.65,0,0,1,41.47,65Z"></path>
		<path class="cls-2" d="M31.92,91.93a0.65,0.65,0,0,1-.19-1.27l9.55-3a0.65,0.65,0,1,1,.39,1.24l-9.55,3A0.61,0.61,0,0,1,31.92,91.93Z"></path>
		<path class="cls-2" d="M49.59,116.86a0.65,0.65,0,0,1-.52-1l6-8a0.65,0.65,0,0,1,1,.78l-6,8A0.65,0.65,0,0,1,49.59,116.86Z"></path>

		<path class="cls-1" d="M80.52,146.83a0.65,0.65,0,0,1-.65-0.65v-10a0.65,0.65,0,0,1,1.3,0v10A0.65,0.65,0,0,1,80.52,146.83Z"></path>
		<path class="cls-1" d="M121.77,132.82a0.65,0.65,0,0,1-.52-0.26l-6-8a0.65,0.65,0,0,1,1-.78l6,8A0.65,0.65,0,0,1,121.77,132.82Z"></path>
		<path class="cls-1" d="M146.52,97.9a0.61,0.61,0,0,1-.19,0l-9.55-3a0.65,0.65,0,1,1,.39-1.24l9.55,3A0.65,0.65,0,0,1,146.52,97.9Z"></path>
		<path class="cls-1" d="M137,59a0.65,0.65,0,0,1-.2-1.27l9.55-3A0.65,0.65,0,1,1,146.7,56l-9.55,3A0.66,0.66,0,0,1,137,59Z"></path>
		<path class="cls-1" d="M115.76,29.12a0.65,0.65,0,0,1-.52-1l6-8a0.65,0.65,0,0,1,1,.78l-6,8A0.65,0.65,0,0,1,115.76,29.12Z"></path>
		<path class="cls-1" d="M80.52,17.11a0.65,0.65,0,0,1-.65-0.65v-10a0.65,0.65,0,0,1,1.3,0v10A0.65,0.65,0,0,1,80.52,17.11Z"></path>
		<path class="cls-1" d="M22.37,59a0.62,0.62,0,0,1-.2,0l-9.55-3A0.65,0.65,0,1,1,13,54.77l9.55,3A0.65,0.65,0,0,1,22.37,59Z"></path>
		<path class="cls-1" d="M12.82,97.9a0.65,0.65,0,0,1-.19-1.27l9.55-3a0.65,0.65,0,1,1,.39,1.24l-9.55,3A0.61,0.61,0,0,1,12.82,97.9Z"></path>
		<path class="cls-1" d="M43.58,29.12a0.65,0.65,0,0,1-.52-0.26l-6-8a0.65,0.65,0,0,1,1-.78l6,8A0.65,0.65,0,0,1,43.58,29.12Z"></path>
		<path class="cls-1" d="M37.56,132.82a0.65,0.65,0,0,1-.52-1l6-8a0.65,0.65,0,0,1,.91-0.13,0.65,0.65,0,0,1,.13.91l-6,8A0.65,0.65,0,0,1,37.56,132.82Z"></path>
	</svg>
	
	<!--FIREWORK LEFT-->
	<svg class="firework-icon img-firework firework-navy-left" id="firework" x="-40" y="100" viewBox="0 0 500 500" >
		<title>Firework-symbol</title>
		<path style="fill: inherit;" class="cls-3" d="M80.52,106.92a0.65,0.65,0,0,1-.65-0.65v-10a0.65,0.65,0,0,1,1.3,0v10A0.65,0.65,0,0,1,80.52,106.92Z"></path>
		<path style="fill: inherit;" class="cls-3" d="M97.72,100.91a0.65,0.65,0,0,1-.52-0.26l-6-8a0.65,0.65,0,0,1,1-.78l6,8A0.65,0.65,0,0,1,97.72,100.91Z"></path>
		<path style="fill: inherit;" class="cls-3" d="M108.32,85.95a0.61,0.61,0,0,1-.19,0l-9.55-3A0.65,0.65,0,1,1,99,81.69l9.55,3A0.65,0.65,0,0,1,108.32,85.95Z"></path>
		<path style="fill:inherit;" class="cls-3" d="M98.77,71a0.65,0.65,0,0,1-.2-1.27l9.55-3a0.65,0.65,0,1,1,.39,1.24L99,71A0.66,0.66,0,0,1,98.77,71Z"></path>
		<path style="fill:inherit;" class="cls-3" d="M91.7,61a0.65,0.65,0,0,1-.52-1l6-8a0.65,0.65,0,0,1,1,.78l-6,8A0.65,0.65,0,0,1,91.7,61Z"></path>
		<path style="fill:inherit;" class="cls-3" d="M80.52,57a0.65,0.65,0,0,1-.65-0.65v-10a0.65,0.65,0,0,1,1.3,0v10A0.65,0.65,0,0,1,80.52,57Z"></path>
		<path style="fill:inherit;" class="cls-3" d="M67.64,61a0.65,0.65,0,0,1-.52-0.26l-6-8a0.65,0.65,0,0,1,1-.78l6,8A0.65,0.65,0,0,1,67.64,61Z"></path>
		<path style="fill:inherit;" class="cls-3" d="M60.57,71a0.66,0.66,0,0,1-.2,0l-9.55-3a0.65,0.65,0,1,1,.39-1.24l9.55,3A0.65,0.65,0,0,1,60.57,71Z"></path>
		<path style="fill:inherit;" class="cls-3" d="M51,85.95a0.65,0.65,0,0,1-.19-1.27l9.55-3a0.65,0.65,0,1,1,.39,1.24l-9.55,3A0.61,0.61,0,0,1,51,85.95Z"></path>
		<path style="fill:inherit;" class="cls-3" d="M61.62,100.91a0.65,0.65,0,0,1-.52-1l6-8a0.65,0.65,0,0,1,1,.78l-6,8A0.65,0.65,0,0,1,61.62,100.91Z"></path>

		<path class="cls-2" d="M80.52,126.88a0.65,0.65,0,0,1-.65-0.65v-10a0.65,0.65,0,0,1,1.3,0v10A0.65,0.65,0,0,1,80.52,126.88Z"></path>
		<path class="cls-2" d="M109.74,116.86a0.65,0.65,0,0,1-.52-0.26l-6-8a0.65,0.65,0,0,1,1-.78l6,8A0.65,0.65,0,0,1,109.74,116.86Z"></path>
		<path class="cls-2" d="M127.42,91.92a0.61,0.61,0,0,1-.19,0l-9.55-3a0.65,0.65,0,1,1,.39-1.24l9.55,3A0.65,0.65,0,0,1,127.42,91.92Z"></path>
		<path class="cls-2" d="M117.86,65a0.65,0.65,0,0,1-.2-1.27l9.55-3a0.65,0.65,0,1,1,.39,1.24l-9.55,3A0.66,0.66,0,0,1,117.86,65Z"></path>
		<path class="cls-2" d="M103.73,45.08a0.65,0.65,0,0,1-.52-1l6-8a0.65,0.65,0,0,1,1,.78l-6,8A0.65,0.65,0,0,1,103.73,45.08Z"></path>
		<path class="cls-2" d="M80.52,37.07a0.65,0.65,0,0,1-.65-0.65v-10a0.65,0.65,0,0,1,1.3,0v10A0.65,0.65,0,0,1,80.52,37.07Z"></path>
		<path class="cls-2" d="M55.61,45.08a0.65,0.65,0,0,1-.52-0.26l-6-8a0.65,0.65,0,0,1,1-.78l6,8A0.65,0.65,0,0,1,55.61,45.08Z"></path>
		<path class="cls-2" d="M41.47,65a0.62,0.62,0,0,1-.2,0l-9.55-3a0.65,0.65,0,1,1,.39-1.24l9.55,3A0.65,0.65,0,0,1,41.47,65Z"></path>
		<path class="cls-2" d="M31.92,91.93a0.65,0.65,0,0,1-.19-1.27l9.55-3a0.65,0.65,0,1,1,.39,1.24l-9.55,3A0.61,0.61,0,0,1,31.92,91.93Z"></path>
		<path class="cls-2" d="M49.59,116.86a0.65,0.65,0,0,1-.52-1l6-8a0.65,0.65,0,0,1,1,.78l-6,8A0.65,0.65,0,0,1,49.59,116.86Z"></path>

		<path class="cls-1" d="M80.52,146.83a0.65,0.65,0,0,1-.65-0.65v-10a0.65,0.65,0,0,1,1.3,0v10A0.65,0.65,0,0,1,80.52,146.83Z"></path>
		<path class="cls-1" d="M121.77,132.82a0.65,0.65,0,0,1-.52-0.26l-6-8a0.65,0.65,0,0,1,1-.78l6,8A0.65,0.65,0,0,1,121.77,132.82Z"></path>
		<path class="cls-1" d="M146.52,97.9a0.61,0.61,0,0,1-.19,0l-9.55-3a0.65,0.65,0,1,1,.39-1.24l9.55,3A0.65,0.65,0,0,1,146.52,97.9Z"></path>
		<path class="cls-1" d="M137,59a0.65,0.65,0,0,1-.2-1.27l9.55-3A0.65,0.65,0,1,1,146.7,56l-9.55,3A0.66,0.66,0,0,1,137,59Z"></path>
		<path class="cls-1" d="M115.76,29.12a0.65,0.65,0,0,1-.52-1l6-8a0.65,0.65,0,0,1,1,.78l-6,8A0.65,0.65,0,0,1,115.76,29.12Z"></path>
		<path class="cls-1" d="M80.52,17.11a0.65,0.65,0,0,1-.65-0.65v-10a0.65,0.65,0,0,1,1.3,0v10A0.65,0.65,0,0,1,80.52,17.11Z"></path>
		<path class="cls-1" d="M22.37,59a0.62,0.62,0,0,1-.2,0l-9.55-3A0.65,0.65,0,1,1,13,54.77l9.55,3A0.65,0.65,0,0,1,22.37,59Z"></path>
		<path class="cls-1" d="M12.82,97.9a0.65,0.65,0,0,1-.19-1.27l9.55-3a0.65,0.65,0,1,1,.39,1.24l-9.55,3A0.61,0.61,0,0,1,12.82,97.9Z"></path>
		<path class="cls-1" d="M43.58,29.12a0.65,0.65,0,0,1-.52-0.26l-6-8a0.65,0.65,0,0,1,1-.78l6,8A0.65,0.65,0,0,1,43.58,29.12Z"></path>
		<path class="cls-1" d="M37.56,132.82a0.65,0.65,0,0,1-.52-1l6-8a0.65,0.65,0,0,1,.91-0.13,0.65,0.65,0,0,1,.13.91l-6,8A0.65,0.65,0,0,1,37.56,132.82Z"></path>
	</svg>
	
	
	<!--FIREWORK RIGHT-->
	<svg class="firework-icon img-firework firework-navy-right" id="firework" x="330" y="-50" viewBox="0 0 300 300"  >
		<title>Firework-symbol</title>
		<path style="fill: inherit;" class="cls-3" d="M80.52,106.92a0.65,0.65,0,0,1-.65-0.65v-10a0.65,0.65,0,0,1,1.3,0v10A0.65,0.65,0,0,1,80.52,106.92Z"></path>
		<path style="fill: inherit;" class="cls-3" d="M97.72,100.91a0.65,0.65,0,0,1-.52-0.26l-6-8a0.65,0.65,0,0,1,1-.78l6,8A0.65,0.65,0,0,1,97.72,100.91Z"></path>
		<path style="fill: inherit;" class="cls-3" d="M108.32,85.95a0.61,0.61,0,0,1-.19,0l-9.55-3A0.65,0.65,0,1,1,99,81.69l9.55,3A0.65,0.65,0,0,1,108.32,85.95Z"></path>
		<path style="fill:inherit;" class="cls-3" d="M98.77,71a0.65,0.65,0,0,1-.2-1.27l9.55-3a0.65,0.65,0,1,1,.39,1.24L99,71A0.66,0.66,0,0,1,98.77,71Z"></path>
		<path style="fill:inherit;" class="cls-3" d="M91.7,61a0.65,0.65,0,0,1-.52-1l6-8a0.65,0.65,0,0,1,1,.78l-6,8A0.65,0.65,0,0,1,91.7,61Z"></path>
		<path style="fill:inherit;" class="cls-3" d="M80.52,57a0.65,0.65,0,0,1-.65-0.65v-10a0.65,0.65,0,0,1,1.3,0v10A0.65,0.65,0,0,1,80.52,57Z"></path>
		<path style="fill:inherit;" class="cls-3" d="M67.64,61a0.65,0.65,0,0,1-.52-0.26l-6-8a0.65,0.65,0,0,1,1-.78l6,8A0.65,0.65,0,0,1,67.64,61Z"></path>
		<path style="fill:inherit;" class="cls-3" d="M60.57,71a0.66,0.66,0,0,1-.2,0l-9.55-3a0.65,0.65,0,1,1,.39-1.24l9.55,3A0.65,0.65,0,0,1,60.57,71Z"></path>
		<path style="fill:inherit;" class="cls-3" d="M51,85.95a0.65,0.65,0,0,1-.19-1.27l9.55-3a0.65,0.65,0,1,1,.39,1.24l-9.55,3A0.61,0.61,0,0,1,51,85.95Z"></path>
		<path style="fill:inherit;" class="cls-3" d="M61.62,100.91a0.65,0.65,0,0,1-.52-1l6-8a0.65,0.65,0,0,1,1,.78l-6,8A0.65,0.65,0,0,1,61.62,100.91Z"></path>

		<path class="cls-2" d="M80.52,126.88a0.65,0.65,0,0,1-.65-0.65v-10a0.65,0.65,0,0,1,1.3,0v10A0.65,0.65,0,0,1,80.52,126.88Z"></path>
		<path class="cls-2" d="M109.74,116.86a0.65,0.65,0,0,1-.52-0.26l-6-8a0.65,0.65,0,0,1,1-.78l6,8A0.65,0.65,0,0,1,109.74,116.86Z"></path>
		<path class="cls-2" d="M127.42,91.92a0.61,0.61,0,0,1-.19,0l-9.55-3a0.65,0.65,0,1,1,.39-1.24l9.55,3A0.65,0.65,0,0,1,127.42,91.92Z"></path>
		<path class="cls-2" d="M117.86,65a0.65,0.65,0,0,1-.2-1.27l9.55-3a0.65,0.65,0,1,1,.39,1.24l-9.55,3A0.66,0.66,0,0,1,117.86,65Z"></path>
		<path class="cls-2" d="M103.73,45.08a0.65,0.65,0,0,1-.52-1l6-8a0.65,0.65,0,0,1,1,.78l-6,8A0.65,0.65,0,0,1,103.73,45.08Z"></path>
		<path class="cls-2" d="M80.52,37.07a0.65,0.65,0,0,1-.65-0.65v-10a0.65,0.65,0,0,1,1.3,0v10A0.65,0.65,0,0,1,80.52,37.07Z"></path>
		<path class="cls-2" d="M55.61,45.08a0.65,0.65,0,0,1-.52-0.26l-6-8a0.65,0.65,0,0,1,1-.78l6,8A0.65,0.65,0,0,1,55.61,45.08Z"></path>
		<path class="cls-2" d="M41.47,65a0.62,0.62,0,0,1-.2,0l-9.55-3a0.65,0.65,0,1,1,.39-1.24l9.55,3A0.65,0.65,0,0,1,41.47,65Z"></path>
		<path class="cls-2" d="M31.92,91.93a0.65,0.65,0,0,1-.19-1.27l9.55-3a0.65,0.65,0,1,1,.39,1.24l-9.55,3A0.61,0.61,0,0,1,31.92,91.93Z"></path>
		<path class="cls-2" d="M49.59,116.86a0.65,0.65,0,0,1-.52-1l6-8a0.65,0.65,0,0,1,1,.78l-6,8A0.65,0.65,0,0,1,49.59,116.86Z"></path>

		<path class="cls-1" d="M80.52,146.83a0.65,0.65,0,0,1-.65-0.65v-10a0.65,0.65,0,0,1,1.3,0v10A0.65,0.65,0,0,1,80.52,146.83Z"></path>
		<path class="cls-1" d="M121.77,132.82a0.65,0.65,0,0,1-.52-0.26l-6-8a0.65,0.65,0,0,1,1-.78l6,8A0.65,0.65,0,0,1,121.77,132.82Z"></path>
		<path class="cls-1" d="M146.52,97.9a0.61,0.61,0,0,1-.19,0l-9.55-3a0.65,0.65,0,1,1,.39-1.24l9.55,3A0.65,0.65,0,0,1,146.52,97.9Z"></path>
		<path class="cls-1" d="M137,59a0.65,0.65,0,0,1-.2-1.27l9.55-3A0.65,0.65,0,1,1,146.7,56l-9.55,3A0.66,0.66,0,0,1,137,59Z"></path>
		<path class="cls-1" d="M115.76,29.12a0.65,0.65,0,0,1-.52-1l6-8a0.65,0.65,0,0,1,1,.78l-6,8A0.65,0.65,0,0,1,115.76,29.12Z"></path>
		<path class="cls-1" d="M80.52,17.11a0.65,0.65,0,0,1-.65-0.65v-10a0.65,0.65,0,0,1,1.3,0v10A0.65,0.65,0,0,1,80.52,17.11Z"></path>
		<path class="cls-1" d="M22.37,59a0.62,0.62,0,0,1-.2,0l-9.55-3A0.65,0.65,0,1,1,13,54.77l9.55,3A0.65,0.65,0,0,1,22.37,59Z"></path>
		<path class="cls-1" d="M12.82,97.9a0.65,0.65,0,0,1-.19-1.27l9.55-3a0.65,0.65,0,1,1,.39,1.24l-9.55,3A0.61,0.61,0,0,1,12.82,97.9Z"></path>
		<path class="cls-1" d="M43.58,29.12a0.65,0.65,0,0,1-.52-0.26l-6-8a0.65,0.65,0,0,1,1-.78l6,8A0.65,0.65,0,0,1,43.58,29.12Z"></path>
		<path class="cls-1" d="M37.56,132.82a0.65,0.65,0,0,1-.52-1l6-8a0.65,0.65,0,0,1,.91-0.13,0.65,0.65,0,0,1,.13.91l-6,8A0.65,0.65,0,0,1,37.56,132.82Z"></path>
	</svg>
	
	<!--FIREWORK RIGHT-->
	<svg class="firework-icon img-firework firework-cyan-right" id="firework" x="200" y="100" viewBox="0 0 500 500">
		<title>Firework-symbol</title>
		<path style="fill: inherit;" class="cls-3" d="M80.52,106.92a0.65,0.65,0,0,1-.65-0.65v-10a0.65,0.65,0,0,1,1.3,0v10A0.65,0.65,0,0,1,80.52,106.92Z"></path>
		<path style="fill: inherit;" class="cls-3" d="M97.72,100.91a0.65,0.65,0,0,1-.52-0.26l-6-8a0.65,0.65,0,0,1,1-.78l6,8A0.65,0.65,0,0,1,97.72,100.91Z"></path>
		<path style="fill: inherit;" class="cls-3" d="M108.32,85.95a0.61,0.61,0,0,1-.19,0l-9.55-3A0.65,0.65,0,1,1,99,81.69l9.55,3A0.65,0.65,0,0,1,108.32,85.95Z"></path>
		<path style="fill:inherit;" class="cls-3" d="M98.77,71a0.65,0.65,0,0,1-.2-1.27l9.55-3a0.65,0.65,0,1,1,.39,1.24L99,71A0.66,0.66,0,0,1,98.77,71Z"></path>
		<path style="fill:inherit;" class="cls-3" d="M91.7,61a0.65,0.65,0,0,1-.52-1l6-8a0.65,0.65,0,0,1,1,.78l-6,8A0.65,0.65,0,0,1,91.7,61Z"></path>
		<path style="fill:inherit;" class="cls-3" d="M80.52,57a0.65,0.65,0,0,1-.65-0.65v-10a0.65,0.65,0,0,1,1.3,0v10A0.65,0.65,0,0,1,80.52,57Z"></path>
		<path style="fill:inherit;" class="cls-3" d="M67.64,61a0.65,0.65,0,0,1-.52-0.26l-6-8a0.65,0.65,0,0,1,1-.78l6,8A0.65,0.65,0,0,1,67.64,61Z"></path>
		<path style="fill:inherit;" class="cls-3" d="M60.57,71a0.66,0.66,0,0,1-.2,0l-9.55-3a0.65,0.65,0,1,1,.39-1.24l9.55,3A0.65,0.65,0,0,1,60.57,71Z"></path>
		<path style="fill:inherit;" class="cls-3" d="M51,85.95a0.65,0.65,0,0,1-.19-1.27l9.55-3a0.65,0.65,0,1,1,.39,1.24l-9.55,3A0.61,0.61,0,0,1,51,85.95Z"></path>
		<path style="fill:inherit;" class="cls-3" d="M61.62,100.91a0.65,0.65,0,0,1-.52-1l6-8a0.65,0.65,0,0,1,1,.78l-6,8A0.65,0.65,0,0,1,61.62,100.91Z"></path>

		<path class="cls-2" d="M80.52,126.88a0.65,0.65,0,0,1-.65-0.65v-10a0.65,0.65,0,0,1,1.3,0v10A0.65,0.65,0,0,1,80.52,126.88Z"></path>
		<path class="cls-2" d="M109.74,116.86a0.65,0.65,0,0,1-.52-0.26l-6-8a0.65,0.65,0,0,1,1-.78l6,8A0.65,0.65,0,0,1,109.74,116.86Z"></path>
		<path class="cls-2" d="M127.42,91.92a0.61,0.61,0,0,1-.19,0l-9.55-3a0.65,0.65,0,1,1,.39-1.24l9.55,3A0.65,0.65,0,0,1,127.42,91.92Z"></path>
		<path class="cls-2" d="M117.86,65a0.65,0.65,0,0,1-.2-1.27l9.55-3a0.65,0.65,0,1,1,.39,1.24l-9.55,3A0.66,0.66,0,0,1,117.86,65Z"></path>
		<path class="cls-2" d="M103.73,45.08a0.65,0.65,0,0,1-.52-1l6-8a0.65,0.65,0,0,1,1,.78l-6,8A0.65,0.65,0,0,1,103.73,45.08Z"></path>
		<path class="cls-2" d="M80.52,37.07a0.65,0.65,0,0,1-.65-0.65v-10a0.65,0.65,0,0,1,1.3,0v10A0.65,0.65,0,0,1,80.52,37.07Z"></path>
		<path class="cls-2" d="M55.61,45.08a0.65,0.65,0,0,1-.52-0.26l-6-8a0.65,0.65,0,0,1,1-.78l6,8A0.65,0.65,0,0,1,55.61,45.08Z"></path>
		<path class="cls-2" d="M41.47,65a0.62,0.62,0,0,1-.2,0l-9.55-3a0.65,0.65,0,1,1,.39-1.24l9.55,3A0.65,0.65,0,0,1,41.47,65Z"></path>
		<path class="cls-2" d="M31.92,91.93a0.65,0.65,0,0,1-.19-1.27l9.55-3a0.65,0.65,0,1,1,.39,1.24l-9.55,3A0.61,0.61,0,0,1,31.92,91.93Z"></path>
		<path class="cls-2" d="M49.59,116.86a0.65,0.65,0,0,1-.52-1l6-8a0.65,0.65,0,0,1,1,.78l-6,8A0.65,0.65,0,0,1,49.59,116.86Z"></path>

		<path class="cls-1" d="M80.52,146.83a0.65,0.65,0,0,1-.65-0.65v-10a0.65,0.65,0,0,1,1.3,0v10A0.65,0.65,0,0,1,80.52,146.83Z"></path>
		<path class="cls-1" d="M121.77,132.82a0.65,0.65,0,0,1-.52-0.26l-6-8a0.65,0.65,0,0,1,1-.78l6,8A0.65,0.65,0,0,1,121.77,132.82Z"></path>
		<path class="cls-1" d="M146.52,97.9a0.61,0.61,0,0,1-.19,0l-9.55-3a0.65,0.65,0,1,1,.39-1.24l9.55,3A0.65,0.65,0,0,1,146.52,97.9Z"></path>
		<path class="cls-1" d="M137,59a0.65,0.65,0,0,1-.2-1.27l9.55-3A0.65,0.65,0,1,1,146.7,56l-9.55,3A0.66,0.66,0,0,1,137,59Z"></path>
		<path class="cls-1" d="M115.76,29.12a0.65,0.65,0,0,1-.52-1l6-8a0.65,0.65,0,0,1,1,.78l-6,8A0.65,0.65,0,0,1,115.76,29.12Z"></path>
		<path class="cls-1" d="M80.52,17.11a0.65,0.65,0,0,1-.65-0.65v-10a0.65,0.65,0,0,1,1.3,0v10A0.65,0.65,0,0,1,80.52,17.11Z"></path>
		<path class="cls-1" d="M22.37,59a0.62,0.62,0,0,1-.2,0l-9.55-3A0.65,0.65,0,1,1,13,54.77l9.55,3A0.65,0.65,0,0,1,22.37,59Z"></path>
		<path class="cls-1" d="M12.82,97.9a0.65,0.65,0,0,1-.19-1.27l9.55-3a0.65,0.65,0,1,1,.39,1.24l-9.55,3A0.61,0.61,0,0,1,12.82,97.9Z"></path>
		<path class="cls-1" d="M43.58,29.12a0.65,0.65,0,0,1-.52-0.26l-6-8a0.65,0.65,0,0,1,1-.78l6,8A0.65,0.65,0,0,1,43.58,29.12Z"></path>
		<path class="cls-1" d="M37.56,132.82a0.65,0.65,0,0,1-.52-1l6-8a0.65,0.65,0,0,1,.91-0.13,0.65,0.65,0,0,1,.13.91l-6,8A0.65,0.65,0,0,1,37.56,132.82Z"></path>
	</svg>
</svg>
